# xmcd
#
# Track frame offsets:
#   182
#   10977
#   26720
#   41002
#   58595
#   75442
#   87720
#   100472
#   112625
#   127817
#   140337
#   156895
#   172992
#   189795
#   202635
#   216505
#   232705
#   247107
#
# Disc length: 3503 seconds
#
# Revision: 0
# Processed by: cddbd v1.4PL0 Copyright (c) Steve Scherf et al.
# Submitted via: uFREEDB ActiveX Control 1.5
#
DISCID=e00dad12
DTITLE=Variados Gaucha - Só Vaneirão
DYEAR=1900
DGENRE=Gaúcha
TTITLE0=Vaneirão do tio zé - Garotos do fandango
TTITLE1=No tranco do vaneirão - Grupo Quero Quero
TTITLE2=No tranco do Gervásio - Os mateadores
TTITLE3=Galo de Rinha - Grupo tertúlia
TTITLE4=Gritos de gaiteiro - Grupo minuano
TTITLE5=No balanço do tio agá - Os fazendeiros
TTITLE6=Matando o fiasco a tapa - sinuelo da serra
TTITLE7=Gaiteiro Bom - Rastro Gaúcho
TTITLE8=Baile de violão - Tiro de Laço
TTITLE9=Morena - Grupo Bochicho
TTITLE10=Recorrendo os aguapés - Porca véia
TTITLE11=Florão de loura - Grupo Fandango
TTITLE12=Surungo de chão batido - Grupo festança
TTITLE13=Nos tempos de rodeio - Os tiranos
TTITLE14=Memórias de galpão - Grupo renascença
TTITLE15=Alambrador - Grupo Candeeiro
TTITLE16=Dia de Cambicho - Grupo Chamamento
TTITLE17=OS Bonitão - Quero Quero
EXTD=
EXTT0=
EXTT1=
EXTT2=
EXTT3=
EXTT4=
EXTT5=
EXTT6=
EXTT7=
EXTT8=
EXTT9=
EXTT10=
EXTT11=
EXTT12=
EXTT13=
EXTT14=
EXTT15=
EXTT16=
EXTT17=
PLAYORDER=
